# xmcd
#
# Track frame offsets: 
#        150
#        12530
#        26260
#        39437
#        53406
#        65981
#        79816
#        96015
#        109770
#        124286
#        137436
#        149978
#        162788
#        177581
#        189783
#        203170
#        216894
#
# Disc length: 3084 seconds
#
# Revision: 1
# Processed by: cddbd v1.5.2PL0 Copyright (c) Steve Scherf et al.
# Submitted via: ExactAudioCopy v0.95b2
#
DISCID=f20c0a11
DTITLE=Big Bill Broonzy - The Essential Big Bill Broonzy Disc 2
DYEAR=1900
DGENRE=General Blues
TTITLE0=Don't Tear My Clothes No.2
TTITLE1=Key To The Highway
TTITLE2=Jivin' Mr. Fuller Blues
TTITLE3=Where Were You Last Night
TTITLE4=Stove Pipe Stomp
TTITLE5=Mountain Blues
TTITLE6=The Southern Blues
TTITLE7=Nancy Jane
TTITLE8=My Big Money
TTITLE9=St. Louis Women Blues
TTITLE10=I Feel So Good
TTITLE11=Looking For My Baby
TTITLE12=C.C. Rider (Take A)
TTITLE13=That Number Of Mine
TTITLE14=Black Cat Rag
TTITLE15=You May Need My Help Someday
TTITLE16=Martha Blues
EXTD=william hale
EXTT0=
EXTT1=
EXTT2=
EXTT3=
EXTT4=
EXTT5=
EXTT6=
EXTT7=
EXTT8=
EXTT9=
EXTT10=
EXTT11=
EXTT12=
EXTT13=
EXTT14=
EXTT15=
EXTT16=
PLAYORDER=
